# xmcd
#
# Track frame offsets:
#	150
#	16334
#	34595
#	52085
#	72542
#	88308
#	106921
#	123105
#	141366
#	158856
#	179298
#	195064
#
# Disc length: 2851 seconds
#
# Revision: 1
# Processed by: cddbd v1.5.2PL0 Copyright (c) Steve Scherf et al.
# Submitted via: audiograbber 1.83.01
#
DISCID=9f0b210c
DTITLE=Various Artist - Country Gospel Hits Vol. 3
DYEAR=1994
DGENRE=Karaoke
TTITLE0=Tammy Cochrane - Angels In Waiting
TTITLE1=Jessi Alexander - Canyon Player
TTITLE2=Carrie Underwood - Jesus Take The Wheel
TTITLE3=Michael Montgomery - Letters From Home
TTITLE4=Randy Travis - Three Wooden Crosses
TTITLE5=Brad Paisley and Dolly Parton - When I Get Where I'm Going
TTITLE6=Tammy Cochrane - Angels In Waiting (DEMO)
TTITLE7=Jessi Alexander - Canyon Player (DEMO)
TTITLE8=Carrie Underwood - Jesus Take The Wheel (DEMO)
TTITLE9=Michael Montgomery - Letters From Home (DEMO)
TTITLE10=Randy Travis - Three Wooden Crosses (DEMO)
TTITLE11=Brad Paisley and Dolly Parton - When I Get Where I'm Going (DEMO)
EXTD=
EXTT0=
EXTT1=
EXTT2=
EXTT3=
EXTT4=
EXTT5=
EXTT6=
EXTT7=
EXTT8=
EXTT9=
EXTT10=
EXTT11=
PLAYORDER=
